<?xml version="1.0" standalone="no"?><!DOCTYPE svg PUBLIC "-//W3C//DTD SVG 1.1//EN" "http://www.w3.org/Graphics/SVG/1.1/DTD/svg11.dtd"><svg t="1518530946269" class="icon" style="" viewBox="0 0 1024 1024" version="1.1" xmlns="http://www.w3.org/2000/svg" p-id="1390" xmlns:xlink="http://www.w3.org/1999/xlink" width="50" height="50"><defs><style type="text/css"></style></defs><path d="M512 512m-512 0a512 512 0 1 0 1024 0 512 512 0 1 0-1024 0Z" fill="#1F1F1F" p-id="1391"></path><path d="M826 517a314.24 314.24 0 0 1-463.2 271.44 317 317 0 0 1-33.49-29.13 314.06 314.06 0 0 1 347.35-510q12.52 5.44 24.43 11.9a311 311 0 0 1 46.22 30.65 315.85 315.85 0 0 1 32.4 29.88 4 4 0 0 0 2.91 1.26 3.81 3.81 0 0 0 1.47-0.29 4 4 0 0 0 2.53-3.71v-70.8a24.86 24.86 0 0 1 10.51-20.31v139.56a24.93 24.93 0 0 1-24.91 24.91H642a24.93 24.93 0 0 1 24.9-24.55h78.32a4 4 0 0 0 3-6.66A264.19 264.19 0 1 0 364.5 724.07a268.31 268.31 0 0 0 25.22 22.25 264.22 264.22 0 0 0 425.77-209.05A24.87 24.87 0 0 1 826 517z" fill="#020202" p-id="1392"></path><path d="M826 512v5a314.74 314.74 0 1 1-85.6-220.53 4 4 0 0 0 6.91-2.75v-70.8a24.91 24.91 0 0 1 49.82 0v144.53a24.93 24.93 0 0 1-24.91 24.91H627.64a24.9 24.9 0 1 1 0-49.81h78.31a4 4 0 0 0 3-6.67A264.22 264.22 0 1 0 776.18 512a24.91 24.91 0 0 1 49.82 0z" fill="#EFCB8E" p-id="1393"></path><path d="M509.25 700.32a25.18 25.18 0 0 1-25.16-25.14v-20.76a25.16 25.16 0 0 1 50.33 0v20.76a25.18 25.18 0 0 1-25.17 25.14zM509.25 412.72a25.18 25.18 0 0 1-25.16-25.14v-20.76a25.16 25.16 0 0 1 50.33 0v20.76a25.18 25.18 0 0 1-25.17 25.14z" fill="#FFFFFF" p-id="1394"></path><path d="M509.63 659.38c-23.58 0-43.39-7.13-58.88-21.18-10.27-9.47-18-21.64-23.06-36.16a25.78 25.78 0 0 1 1.84-21 25.13 25.13 0 0 1 21.91-12.86 25.81 25.81 0 0 1 24.43 18.78c1.71 5.87 3.57 9 4.83 10.69l0.13 0.17c6.89 9.56 16.81 14.22 30.29 14.22 10.6 0 19.12-3.41 26.06-10.43s10.34-15.79 10.34-26.73a37.69 37.69 0 0 0-1.79-11.91 29.26 29.26 0 0 0-5.44-9.6 46.51 46.51 0 0 0-10.16-8.71 104.59 104.59 0 0 0-15.74-8.24l-24.67-10.25c-37.21-15.71-56.07-39.32-56.07-70.17 0-20.83 8.07-38.48 24-52.46 15.69-13.91 35.42-21 58.64-21 24.17 0 44.58 9.13 60.65 27.13a24 24 0 0 1 5.84 19.69 23.55 23.55 0 0 1-23.26 20 23.8 23.8 0 0 1-18.24-8.5 27.38 27.38 0 0 0-6.72-6.08l-0.22-0.14c-4.56-2.92-10.75-4.4-18.37-4.4-9.43 0-17 2.54-23.07 7.77-5.91 5-8.67 10.79-8.67 18.29 0 15 18.37 22.51 24.41 25l25.56 10.44c21.61 8.73 37.73 19.65 47.92 32.46 10.39 13.06 15.66 29.22 15.66 48 0 25-8.5 46-25.25 62.37s-38.03 24.81-62.9 24.81z" fill="#FFFFFF" p-id="1395"></path></svg>