<?xml version="1.0" standalone="no"?><!DOCTYPE svg PUBLIC "-//W3C//DTD SVG 1.1//EN" "http://www.w3.org/Graphics/SVG/1.1/DTD/svg11.dtd"><svg t="1518530942200" class="icon" style="" viewBox="0 0 1024 1024" version="1.1" xmlns="http://www.w3.org/2000/svg" p-id="1255" xmlns:xlink="http://www.w3.org/1999/xlink" width="50" height="50"><defs><style type="text/css"></style></defs><path d="M512 512m-512 0a512 512 0 1 0 1024 0 512 512 0 1 0-1024 0Z" fill="#414141" p-id="1256"></path><path d="M719.74 372.79a10.59 10.59 0 0 1-7.62-3.2l-81.29-81.08-24.07-24a10.86 10.86 0 0 1 4.91-18.19l143.92-38.46a11.4 11.4 0 0 1 2.93-0.39 11 11 0 0 1 8.64 4.34 10.6 10.6 0 0 1 1.84 9.39l-10.54 39.22-28 104.31a10.86 10.86 0 0 1-9.94 8z" fill="#414141" p-id="1257"></path><path d="M297.8 531.82a25 25 0 0 1-17.63-42.77l151.05-148.76a25.13 25.13 0 0 1 35.46 0.21l52.78 53.31L532 406.43l7.27-7.38 102.3-101.31L677 333.1 574.45 434.68l-25.06 24.8a25 25 0 0 1-17.67 7.27h-0.17a25.59 25.59 0 0 1-15.63-5.6l-0.19-0.18-1.25-1.07-0.25-0.23-4.23-4.23-61.43-62-133.14 131.17a25 25 0 0 1-17.63 7.21z" fill="#414141" p-id="1258"></path><path d="M697.16 340.55a10.59 10.59 0 0 1-7.62-3.2l-81.29-81.08-24.07-24a10.86 10.86 0 0 1 4.91-18.19L733 175.64a11.4 11.4 0 0 1 2.93-0.39 11 11 0 0 1 8.64 4.34 10.6 10.6 0 0 1 1.83 9.37l-10.54 39.22-28 104.31a10.86 10.86 0 0 1-9.94 8z" fill="#FFFFFF" p-id="1259"></path><path d="M277 494.66a22.84 22.84 0 0 1-16.13-39.11l150.21-147.9a23 23 0 0 1 32.45 0.19l52.47 53 12.43 12.54a2 2 0 0 0 1.41 0.59 2 2 0 0 0 1.41-0.59l7.23-7.33 100.3-99.31 32.44 32.35-100.55 99.57-24.91 24.66a22.83 22.83 0 0 1-16.18 6.68h-0.16a23.44 23.44 0 0 1-14.24-5.09l-0.14-0.13-1.29-1.11-0.19-0.18-4.1-4.15-61.07-61.64a2 2 0 0 0-2.81 0l-132.4 130.36a22.86 22.86 0 0 1-16.18 6.6z" fill="#FFFFFF" p-id="1260"></path><path d="M288.08 848.76c-0.81 0-1.63 0-2.43-0.08a35.49 35.49 0 0 1-3.56-0.4 36.43 36.43 0 0 1-30.6-36.07V558.54a45.78 45.78 0 0 1 45.78-45.78h63.41a45.93 45.93 0 0 1 43.16 30.43q0.33 0.94 0.62 1.87a45.3 45.3 0 0 1 2 13.48V812.2a36.56 36.56 0 0 1-36.56 36.56z m10.42-47h61v-242h-61zM434.5 812.2V600.54a45.78 45.78 0 0 1 45.78-45.78h63.41a46.07 46.07 0 0 1 42.93 29.78c0.45 1.19 0.85 2.42 1.19 3.65a45.75 45.75 0 0 1 1.69 12.36V812.2a36.56 36.56 0 0 1-36.56 36.56h-81.88a36.56 36.56 0 0 1-36.56-36.56z m47-10.44h61v-200h-61z" fill="#EFCB8E" p-id="1261"></path><path d="M617.5 812.2V483.54a45.78 45.78 0 0 1 45.78-45.78h63.41a45.6 45.6 0 0 1 42.56 28.82c0.49 1.25 0.94 2.53 1.33 3.81a45.79 45.79 0 0 1 1.92 13.11v328.7a36.56 36.56 0 0 1-36.56 36.56h-81.88a36.56 36.56 0 0 1-36.56-36.56z m47-10.44h61v-318h-61z" fill="#FFFFFF" p-id="1262"></path></svg>